<mxfile host="app.diagrams.net" modified="2023-05-02T12:05:34.511Z" agent="Mozilla/5.0 (Windows NT 10.0; Win64; x64) AppleWebKit/537.36 (KHTML, like Gecko) Chrome/112.0.0.0 Safari/537.36 Edg/112.0.1722.64" etag="YIO5Kc8Ijz8jL7X9wFSv" version="21.2.4" type="device">
  <diagram name="Страница 1" id="QsfnnbbEi18aQVXhpXs9">
    <mxGraphModel dx="1419" dy="819" grid="1" gridSize="10" guides="1" tooltips="1" connect="1" arrows="1" fold="1" page="1" pageScale="1" pageWidth="1600" pageHeight="900" math="0" shadow="0">
      <root>
        <mxCell id="0" />
        <mxCell id="1" parent="0" />
        <mxCell id="9knSuTqsfpqkdG8Z8UKq-2" value="" style="rounded=0;whiteSpace=wrap;html=1;movable=0;resizable=0;rotatable=0;deletable=0;editable=0;locked=1;connectable=0;" parent="1" vertex="1">
          <mxGeometry x="255" y="99" width="1150" height="671" as="geometry" />
        </mxCell>
        <mxCell id="9knSuTqsfpqkdG8Z8UKq-105" style="edgeStyle=orthogonalEdgeStyle;shape=connector;rounded=0;orthogonalLoop=1;jettySize=auto;html=1;exitX=0.5;exitY=0;exitDx=0;exitDy=0;exitPerimeter=0;entryX=0.5;entryY=1;entryDx=0;entryDy=0;labelBackgroundColor=default;strokeColor=default;fontFamily=Helvetica;fontSize=11;fontColor=default;endArrow=classic;" parent="1" source="9knSuTqsfpqkdG8Z8UKq-1" target="9knSuTqsfpqkdG8Z8UKq-85" edge="1">
          <mxGeometry relative="1" as="geometry" />
        </mxCell>
        <mxCell id="9knSuTqsfpqkdG8Z8UKq-1" value="Гость" style="shape=umlActor;verticalLabelPosition=bottom;verticalAlign=top;html=1;outlineConnect=0;" parent="1" vertex="1">
          <mxGeometry x="575" y="791" width="30" height="60" as="geometry" />
        </mxCell>
        <mxCell id="9knSuTqsfpqkdG8Z8UKq-107" style="edgeStyle=orthogonalEdgeStyle;shape=connector;rounded=0;orthogonalLoop=1;jettySize=auto;html=1;exitX=0.5;exitY=0.5;exitDx=0;exitDy=0;exitPerimeter=0;entryX=0;entryY=0.5;entryDx=0;entryDy=0;labelBackgroundColor=default;strokeColor=default;fontFamily=Helvetica;fontSize=11;fontColor=default;endArrow=classic;" parent="1" source="9knSuTqsfpqkdG8Z8UKq-14" target="9knSuTqsfpqkdG8Z8UKq-83" edge="1">
          <mxGeometry relative="1" as="geometry" />
        </mxCell>
        <mxCell id="9knSuTqsfpqkdG8Z8UKq-14" value="Автор" style="shape=umlActor;verticalLabelPosition=bottom;verticalAlign=top;html=1;outlineConnect=0;" parent="1" vertex="1">
          <mxGeometry x="195" y="266" width="30" height="60" as="geometry" />
        </mxCell>
        <mxCell id="9knSuTqsfpqkdG8Z8UKq-88" style="edgeStyle=orthogonalEdgeStyle;rounded=0;orthogonalLoop=1;jettySize=auto;html=1;exitX=0.5;exitY=0;exitDx=0;exitDy=0;exitPerimeter=0;entryX=0.5;entryY=1;entryDx=0;entryDy=0;" parent="1" source="9knSuTqsfpqkdG8Z8UKq-32" target="9knSuTqsfpqkdG8Z8UKq-86" edge="1">
          <mxGeometry relative="1" as="geometry" />
        </mxCell>
        <mxCell id="9knSuTqsfpqkdG8Z8UKq-32" value="Администратор" style="shape=umlActor;verticalLabelPosition=bottom;verticalAlign=top;html=1;outlineConnect=0;" parent="1" vertex="1">
          <mxGeometry x="1095" y="791" width="30" height="60" as="geometry" />
        </mxCell>
        <mxCell id="9knSuTqsfpqkdG8Z8UKq-17" value="просматривать ленту постов" style="ellipse;whiteSpace=wrap;html=1;fillColor=none;" parent="1" vertex="1">
          <mxGeometry x="810" y="380" width="120" height="80" as="geometry" />
        </mxCell>
        <mxCell id="9knSuTqsfpqkdG8Z8UKq-18" value="открывать страницу со всеми постами" style="ellipse;whiteSpace=wrap;html=1;fillColor=none;" parent="1" vertex="1">
          <mxGeometry x="930" y="315" width="120" height="80" as="geometry" />
        </mxCell>
        <mxCell id="9knSuTqsfpqkdG8Z8UKq-19" value="открывать страницу поста с детальной информацией по посту" style="ellipse;whiteSpace=wrap;html=1;fillColor=none;" parent="1" vertex="1">
          <mxGeometry x="610" y="450" width="190" height="80" as="geometry" />
        </mxCell>
        <mxCell id="9knSuTqsfpqkdG8Z8UKq-20" value="написание поста" style="ellipse;whiteSpace=wrap;html=1;" parent="1" vertex="1">
          <mxGeometry x="370" y="341" width="120" height="80" as="geometry" />
        </mxCell>
        <mxCell id="9knSuTqsfpqkdG8Z8UKq-21" value="&lt;div style=&quot;color: rgb(26, 26, 26); font-family: &amp;quot;YS Text&amp;quot;, &amp;quot;Helvetica Neue&amp;quot;, Helvetica, Arial, sans-serif;&quot;&gt;&lt;font style=&quot;font-size: 12px;&quot;&gt;редактирование поста и удаление поста. Удалять посты возможно только&lt;/font&gt;&lt;/div&gt;&lt;div style=&quot;color: rgb(26, 26, 26); font-family: &amp;quot;YS Text&amp;quot;, &amp;quot;Helvetica Neue&amp;quot;, Helvetica, Arial, sans-serif;&quot;&gt;&lt;font style=&quot;font-size: 12px;&quot;&gt;те, у которых нет комментариев&lt;/font&gt;&lt;/div&gt;" style="ellipse;whiteSpace=wrap;html=1;align=center;" parent="1" vertex="1">
          <mxGeometry x="310" y="150" width="240" height="90" as="geometry" />
        </mxCell>
        <mxCell id="9knSuTqsfpqkdG8Z8UKq-23" value="&lt;div style=&quot;color: rgb(26, 26, 26); font-family: &amp;quot;YS Text&amp;quot;, &amp;quot;Helvetica Neue&amp;quot;, Helvetica, Arial, sans-serif;&quot;&gt;&lt;font style=&quot;font-size: 12px;&quot;&gt;написание комментариев на любой пост (кроме своих), ответить на чей-то&lt;/font&gt;&lt;/div&gt;&lt;div style=&quot;color: rgb(26, 26, 26); font-family: &amp;quot;YS Text&amp;quot;, &amp;quot;Helvetica Neue&amp;quot;, Helvetica, Arial, sans-serif;&quot;&gt;&lt;font style=&quot;font-size: 12px;&quot;&gt;комментарий у своих постов&lt;/font&gt;&lt;/div&gt;" style="ellipse;whiteSpace=wrap;html=1;align=center;" parent="1" vertex="1">
          <mxGeometry x="560" y="150" width="240" height="90" as="geometry" />
        </mxCell>
        <mxCell id="9knSuTqsfpqkdG8Z8UKq-10" value="регистрироваться в системе" style="ellipse;whiteSpace=wrap;html=1;" parent="1" vertex="1">
          <mxGeometry x="320" y="540" width="120" height="80" as="geometry" />
        </mxCell>
        <mxCell id="9knSuTqsfpqkdG8Z8UKq-11" value="авторизоваться, после авторизации переходит в статус автора" style="ellipse;whiteSpace=wrap;html=1;" parent="1" vertex="1">
          <mxGeometry x="455" y="540" width="120" height="80" as="geometry" />
        </mxCell>
        <mxCell id="9knSuTqsfpqkdG8Z8UKq-40" value="удаление любого комментария к посту" style="ellipse;whiteSpace=wrap;html=1;" parent="1" vertex="1">
          <mxGeometry x="1182.5" y="430" width="120" height="80" as="geometry" />
        </mxCell>
        <mxCell id="9knSuTqsfpqkdG8Z8UKq-42" value="&lt;div style=&quot;color: rgb(26, 26, 26); font-family: &amp;quot;YS Text&amp;quot;, &amp;quot;Helvetica Neue&amp;quot;, Helvetica, Arial, sans-serif;&quot;&gt;&lt;font style=&quot;font-size: 12px;&quot;&gt;блокировка входа пользователя в систему на определенное время либо на&lt;/font&gt;&lt;/div&gt;&lt;div style=&quot;color: rgb(26, 26, 26); font-family: &amp;quot;YS Text&amp;quot;, &amp;quot;Helvetica Neue&amp;quot;, Helvetica, Arial, sans-serif;&quot;&gt;&lt;font style=&quot;font-size: 12px;&quot;&gt;всегда. Если доступ пользователю блокируется на всегда, то удаляются все посты&lt;/font&gt;&lt;/div&gt;&lt;div style=&quot;color: rgb(26, 26, 26); font-family: &amp;quot;YS Text&amp;quot;, &amp;quot;Helvetica Neue&amp;quot;, Helvetica, Arial, sans-serif;&quot;&gt;&lt;font style=&quot;font-size: 12px;&quot;&gt;(с веткой комментариев к посту) этого пользователя&lt;/font&gt;&lt;/div&gt;" style="ellipse;whiteSpace=wrap;html=1;align=center;" parent="1" vertex="1">
          <mxGeometry x="875" y="120" width="470" height="80" as="geometry" />
        </mxCell>
        <mxCell id="9knSuTqsfpqkdG8Z8UKq-52" value="&lt;div style=&quot;color: rgb(26, 26, 26); font-family: &amp;quot;YS Text&amp;quot;, &amp;quot;Helvetica Neue&amp;quot;, Helvetica, Arial, sans-serif;&quot;&gt;&lt;font style=&quot;font-size: 12px;&quot;&gt;удаление любого поста. Если у поста были комментарии, то они&amp;nbsp;&lt;/font&gt;&lt;/div&gt;&lt;div style=&quot;color: rgb(26, 26, 26); font-family: &amp;quot;YS Text&amp;quot;, &amp;quot;Helvetica Neue&amp;quot;, Helvetica, Arial, sans-serif;&quot;&gt;&lt;font style=&quot;font-size: 12px;&quot;&gt;так&amp;nbsp;&lt;/font&gt;&lt;span style=&quot;background-color: initial;&quot;&gt;же&amp;nbsp;&lt;/span&gt;&lt;span style=&quot;background-color: initial;&quot;&gt;удаляются&lt;/span&gt;&lt;/div&gt;" style="ellipse;whiteSpace=wrap;html=1;align=center;" parent="1" vertex="1">
          <mxGeometry x="1180" y="330" width="210" height="80" as="geometry" />
        </mxCell>
        <mxCell id="9knSuTqsfpqkdG8Z8UKq-65" value="просмотр списка пользователей в системе" style="ellipse;whiteSpace=wrap;html=1;" parent="1" vertex="1">
          <mxGeometry x="1182.5" y="530" width="120" height="80" as="geometry" />
        </mxCell>
        <mxCell id="9knSuTqsfpqkdG8Z8UKq-93" style="edgeStyle=orthogonalEdgeStyle;shape=connector;rounded=0;orthogonalLoop=1;jettySize=auto;html=1;exitX=1;exitY=0.5;exitDx=0;exitDy=0;entryX=0.5;entryY=0;entryDx=0;entryDy=0;dashed=1;labelBackgroundColor=default;strokeColor=default;fontFamily=Helvetica;fontSize=11;fontColor=default;endArrow=classic;" parent="1" source="9knSuTqsfpqkdG8Z8UKq-83" target="9knSuTqsfpqkdG8Z8UKq-20" edge="1">
          <mxGeometry relative="1" as="geometry" />
        </mxCell>
        <mxCell id="9knSuTqsfpqkdG8Z8UKq-94" style="edgeStyle=orthogonalEdgeStyle;shape=connector;rounded=0;orthogonalLoop=1;jettySize=auto;html=1;exitX=1;exitY=0.5;exitDx=0;exitDy=0;entryX=0.5;entryY=1;entryDx=0;entryDy=0;dashed=1;labelBackgroundColor=default;strokeColor=default;fontFamily=Helvetica;fontSize=11;fontColor=default;endArrow=classic;" parent="1" source="9knSuTqsfpqkdG8Z8UKq-83" target="9knSuTqsfpqkdG8Z8UKq-21" edge="1">
          <mxGeometry relative="1" as="geometry" />
        </mxCell>
        <mxCell id="9knSuTqsfpqkdG8Z8UKq-95" style="edgeStyle=orthogonalEdgeStyle;shape=connector;rounded=0;orthogonalLoop=1;jettySize=auto;html=1;exitX=1;exitY=0.5;exitDx=0;exitDy=0;entryX=0.5;entryY=1;entryDx=0;entryDy=0;dashed=1;labelBackgroundColor=default;strokeColor=default;fontFamily=Helvetica;fontSize=11;fontColor=default;endArrow=classic;" parent="1" source="9knSuTqsfpqkdG8Z8UKq-83" target="9knSuTqsfpqkdG8Z8UKq-23" edge="1">
          <mxGeometry relative="1" as="geometry" />
        </mxCell>
        <mxCell id="9knSuTqsfpqkdG8Z8UKq-96" style="edgeStyle=orthogonalEdgeStyle;shape=connector;rounded=0;orthogonalLoop=1;jettySize=auto;html=1;exitX=1;exitY=0.5;exitDx=0;exitDy=0;entryX=0.5;entryY=0;entryDx=0;entryDy=0;dashed=1;labelBackgroundColor=default;strokeColor=default;fontFamily=Helvetica;fontSize=11;fontColor=default;endArrow=classic;" parent="1" source="9knSuTqsfpqkdG8Z8UKq-83" target="9knSuTqsfpqkdG8Z8UKq-18" edge="1">
          <mxGeometry relative="1" as="geometry" />
        </mxCell>
        <mxCell id="9knSuTqsfpqkdG8Z8UKq-97" style="edgeStyle=orthogonalEdgeStyle;shape=connector;rounded=0;orthogonalLoop=1;jettySize=auto;html=1;exitX=1;exitY=0.5;exitDx=0;exitDy=0;entryX=0.5;entryY=0;entryDx=0;entryDy=0;dashed=1;labelBackgroundColor=default;strokeColor=default;fontFamily=Helvetica;fontSize=11;fontColor=default;endArrow=classic;" parent="1" source="9knSuTqsfpqkdG8Z8UKq-83" target="9knSuTqsfpqkdG8Z8UKq-17" edge="1">
          <mxGeometry relative="1" as="geometry" />
        </mxCell>
        <mxCell id="9knSuTqsfpqkdG8Z8UKq-98" style="edgeStyle=orthogonalEdgeStyle;shape=connector;rounded=0;orthogonalLoop=1;jettySize=auto;html=1;exitX=1;exitY=0.5;exitDx=0;exitDy=0;entryX=0.5;entryY=0;entryDx=0;entryDy=0;dashed=1;labelBackgroundColor=default;strokeColor=default;fontFamily=Helvetica;fontSize=11;fontColor=default;endArrow=classic;" parent="1" source="9knSuTqsfpqkdG8Z8UKq-83" target="9knSuTqsfpqkdG8Z8UKq-19" edge="1">
          <mxGeometry relative="1" as="geometry" />
        </mxCell>
        <mxCell id="9knSuTqsfpqkdG8Z8UKq-83" value="Вход на сайт" style="ellipse;whiteSpace=wrap;html=1;" parent="1" vertex="1">
          <mxGeometry x="270" y="256" width="120" height="80" as="geometry" />
        </mxCell>
        <mxCell id="9knSuTqsfpqkdG8Z8UKq-99" style="edgeStyle=orthogonalEdgeStyle;shape=connector;rounded=0;orthogonalLoop=1;jettySize=auto;html=1;exitX=0.5;exitY=0;exitDx=0;exitDy=0;entryX=0.5;entryY=1;entryDx=0;entryDy=0;dashed=1;labelBackgroundColor=default;strokeColor=default;fontFamily=Helvetica;fontSize=11;fontColor=default;endArrow=classic;" parent="1" source="9knSuTqsfpqkdG8Z8UKq-85" target="9knSuTqsfpqkdG8Z8UKq-11" edge="1">
          <mxGeometry relative="1" as="geometry" />
        </mxCell>
        <mxCell id="9knSuTqsfpqkdG8Z8UKq-100" style="edgeStyle=orthogonalEdgeStyle;shape=connector;rounded=0;orthogonalLoop=1;jettySize=auto;html=1;exitX=0.5;exitY=0;exitDx=0;exitDy=0;entryX=0.5;entryY=1;entryDx=0;entryDy=0;dashed=1;labelBackgroundColor=default;strokeColor=default;fontFamily=Helvetica;fontSize=11;fontColor=default;endArrow=classic;" parent="1" source="9knSuTqsfpqkdG8Z8UKq-85" target="9knSuTqsfpqkdG8Z8UKq-10" edge="1">
          <mxGeometry relative="1" as="geometry" />
        </mxCell>
        <mxCell id="9knSuTqsfpqkdG8Z8UKq-102" style="edgeStyle=orthogonalEdgeStyle;shape=connector;rounded=0;orthogonalLoop=1;jettySize=auto;html=1;exitX=0.5;exitY=0;exitDx=0;exitDy=0;entryX=0.5;entryY=1;entryDx=0;entryDy=0;dashed=1;labelBackgroundColor=default;strokeColor=default;fontFamily=Helvetica;fontSize=11;fontColor=default;endArrow=classic;" parent="1" source="9knSuTqsfpqkdG8Z8UKq-85" target="9knSuTqsfpqkdG8Z8UKq-18" edge="1">
          <mxGeometry relative="1" as="geometry">
            <Array as="points">
              <mxPoint x="590" y="650" />
              <mxPoint x="990" y="650" />
            </Array>
          </mxGeometry>
        </mxCell>
        <mxCell id="9knSuTqsfpqkdG8Z8UKq-103" style="edgeStyle=orthogonalEdgeStyle;shape=connector;rounded=0;orthogonalLoop=1;jettySize=auto;html=1;exitX=0.5;exitY=0;exitDx=0;exitDy=0;entryX=0.5;entryY=1;entryDx=0;entryDy=0;dashed=1;labelBackgroundColor=default;strokeColor=default;fontFamily=Helvetica;fontSize=11;fontColor=default;endArrow=classic;" parent="1" source="9knSuTqsfpqkdG8Z8UKq-85" target="9knSuTqsfpqkdG8Z8UKq-19" edge="1">
          <mxGeometry relative="1" as="geometry">
            <Array as="points">
              <mxPoint x="590" y="650" />
              <mxPoint x="705" y="650" />
            </Array>
          </mxGeometry>
        </mxCell>
        <mxCell id="9knSuTqsfpqkdG8Z8UKq-104" style="edgeStyle=orthogonalEdgeStyle;shape=connector;rounded=0;orthogonalLoop=1;jettySize=auto;html=1;exitX=0.5;exitY=0;exitDx=0;exitDy=0;entryX=0.5;entryY=1;entryDx=0;entryDy=0;dashed=1;labelBackgroundColor=default;strokeColor=default;fontFamily=Helvetica;fontSize=11;fontColor=default;endArrow=classic;" parent="1" source="9knSuTqsfpqkdG8Z8UKq-85" target="9knSuTqsfpqkdG8Z8UKq-17" edge="1">
          <mxGeometry relative="1" as="geometry">
            <Array as="points">
              <mxPoint x="590" y="650" />
              <mxPoint x="870" y="650" />
            </Array>
          </mxGeometry>
        </mxCell>
        <mxCell id="9knSuTqsfpqkdG8Z8UKq-85" value="Вход на сайт" style="ellipse;whiteSpace=wrap;html=1;" parent="1" vertex="1">
          <mxGeometry x="530" y="680" width="120" height="80" as="geometry" />
        </mxCell>
        <mxCell id="9knSuTqsfpqkdG8Z8UKq-89" style="edgeStyle=orthogonalEdgeStyle;rounded=0;orthogonalLoop=1;jettySize=auto;html=1;exitX=0.5;exitY=0;exitDx=0;exitDy=0;entryX=0;entryY=0.5;entryDx=0;entryDy=0;dashed=1;" parent="1" source="9knSuTqsfpqkdG8Z8UKq-86" target="9knSuTqsfpqkdG8Z8UKq-65" edge="1">
          <mxGeometry relative="1" as="geometry" />
        </mxCell>
        <mxCell id="9knSuTqsfpqkdG8Z8UKq-90" style="edgeStyle=orthogonalEdgeStyle;rounded=0;orthogonalLoop=1;jettySize=auto;html=1;exitX=0.5;exitY=0;exitDx=0;exitDy=0;entryX=0;entryY=0.5;entryDx=0;entryDy=0;dashed=1;" parent="1" source="9knSuTqsfpqkdG8Z8UKq-86" target="9knSuTqsfpqkdG8Z8UKq-40" edge="1">
          <mxGeometry relative="1" as="geometry" />
        </mxCell>
        <mxCell id="9knSuTqsfpqkdG8Z8UKq-91" style="edgeStyle=orthogonalEdgeStyle;rounded=0;orthogonalLoop=1;jettySize=auto;html=1;exitX=0.5;exitY=0;exitDx=0;exitDy=0;entryX=0.5;entryY=1;entryDx=0;entryDy=0;dashed=1;" parent="1" source="9knSuTqsfpqkdG8Z8UKq-86" target="9knSuTqsfpqkdG8Z8UKq-42" edge="1">
          <mxGeometry relative="1" as="geometry" />
        </mxCell>
        <mxCell id="9knSuTqsfpqkdG8Z8UKq-108" style="edgeStyle=orthogonalEdgeStyle;shape=connector;rounded=0;orthogonalLoop=1;jettySize=auto;html=1;exitX=0.5;exitY=0;exitDx=0;exitDy=0;entryX=1;entryY=0.5;entryDx=0;entryDy=0;labelBackgroundColor=default;strokeColor=default;fontFamily=Helvetica;fontSize=11;fontColor=default;endArrow=classic;dashed=1;" parent="1" source="9knSuTqsfpqkdG8Z8UKq-86" target="9knSuTqsfpqkdG8Z8UKq-18" edge="1">
          <mxGeometry relative="1" as="geometry" />
        </mxCell>
        <mxCell id="9knSuTqsfpqkdG8Z8UKq-110" style="edgeStyle=orthogonalEdgeStyle;shape=connector;rounded=0;orthogonalLoop=1;jettySize=auto;html=1;exitX=0.5;exitY=0;exitDx=0;exitDy=0;entryX=1;entryY=0.5;entryDx=0;entryDy=0;dashed=1;labelBackgroundColor=default;strokeColor=default;fontFamily=Helvetica;fontSize=11;fontColor=default;endArrow=classic;" parent="1" source="9knSuTqsfpqkdG8Z8UKq-86" target="9knSuTqsfpqkdG8Z8UKq-17" edge="1">
          <mxGeometry relative="1" as="geometry" />
        </mxCell>
        <mxCell id="9knSuTqsfpqkdG8Z8UKq-111" style="edgeStyle=orthogonalEdgeStyle;shape=connector;rounded=0;orthogonalLoop=1;jettySize=auto;html=1;exitX=0.5;exitY=0;exitDx=0;exitDy=0;entryX=1;entryY=0.5;entryDx=0;entryDy=0;dashed=1;labelBackgroundColor=default;strokeColor=default;fontFamily=Helvetica;fontSize=11;fontColor=default;endArrow=classic;" parent="1" source="9knSuTqsfpqkdG8Z8UKq-86" target="9knSuTqsfpqkdG8Z8UKq-19" edge="1">
          <mxGeometry relative="1" as="geometry" />
        </mxCell>
        <mxCell id="94AjfqhA89R-d6uJUm2w-16" style="edgeStyle=orthogonalEdgeStyle;rounded=0;orthogonalLoop=1;jettySize=auto;html=1;exitX=0.5;exitY=0;exitDx=0;exitDy=0;entryX=0;entryY=0.5;entryDx=0;entryDy=0;dashed=1;" edge="1" parent="1" source="9knSuTqsfpqkdG8Z8UKq-86" target="9knSuTqsfpqkdG8Z8UKq-52">
          <mxGeometry relative="1" as="geometry" />
        </mxCell>
        <mxCell id="9knSuTqsfpqkdG8Z8UKq-86" value="Вход на сайт" style="ellipse;whiteSpace=wrap;html=1;" parent="1" vertex="1">
          <mxGeometry x="1050" y="610" width="120" height="80" as="geometry" />
        </mxCell>
        <mxCell id="9knSuTqsfpqkdG8Z8UKq-112" value="&amp;lt;ex&amp;gt;" style="text;html=1;strokeColor=none;fillColor=none;align=center;verticalAlign=middle;whiteSpace=wrap;rounded=0;fontSize=11;fontFamily=Helvetica;fontColor=default;rotation=90;" parent="1" vertex="1">
          <mxGeometry x="410" y="256" width="60" height="30" as="geometry" />
        </mxCell>
        <mxCell id="94AjfqhA89R-d6uJUm2w-1" value="&amp;lt;in&amp;gt;" style="text;html=1;strokeColor=none;fillColor=none;align=center;verticalAlign=middle;whiteSpace=wrap;rounded=0;fontSize=11;fontFamily=Helvetica;fontColor=default;" vertex="1" parent="1">
          <mxGeometry x="460" y="435" width="60" height="30" as="geometry" />
        </mxCell>
        <mxCell id="94AjfqhA89R-d6uJUm2w-2" value="&amp;lt;ex&amp;gt;" style="text;html=1;strokeColor=none;fillColor=none;align=center;verticalAlign=middle;whiteSpace=wrap;rounded=0;fontSize=11;fontFamily=Helvetica;fontColor=default;rotation=90;" vertex="1" parent="1">
          <mxGeometry x="410" y="306" width="60" height="30" as="geometry" />
        </mxCell>
        <mxCell id="94AjfqhA89R-d6uJUm2w-4" value="&amp;lt;ex&amp;gt;" style="text;html=1;strokeColor=none;fillColor=none;align=center;verticalAlign=middle;whiteSpace=wrap;rounded=0;fontSize=11;fontFamily=Helvetica;fontColor=default;rotation=90;" vertex="1" parent="1">
          <mxGeometry x="660" y="256" width="60" height="30" as="geometry" />
        </mxCell>
        <mxCell id="94AjfqhA89R-d6uJUm2w-6" value="&amp;lt;ex&amp;gt;" style="text;html=1;strokeColor=none;fillColor=none;align=center;verticalAlign=middle;whiteSpace=wrap;rounded=0;fontSize=11;fontFamily=Helvetica;fontColor=default;rotation=90;" vertex="1" parent="1">
          <mxGeometry x="660" y="400" width="60" height="30" as="geometry" />
        </mxCell>
        <mxCell id="94AjfqhA89R-d6uJUm2w-7" value="&amp;lt;ex&amp;gt;" style="text;html=1;strokeColor=none;fillColor=none;align=center;verticalAlign=middle;whiteSpace=wrap;rounded=0;fontSize=11;fontFamily=Helvetica;fontColor=default;rotation=90;" vertex="1" parent="1">
          <mxGeometry x="830" y="330" width="60" height="30" as="geometry" />
        </mxCell>
        <mxCell id="94AjfqhA89R-d6uJUm2w-8" value="&amp;lt;ex&amp;gt;" style="text;html=1;strokeColor=none;fillColor=none;align=center;verticalAlign=middle;whiteSpace=wrap;rounded=0;fontSize=11;fontFamily=Helvetica;fontColor=default;rotation=0;" vertex="1" parent="1">
          <mxGeometry x="940" y="291" width="60" height="30" as="geometry" />
        </mxCell>
        <mxCell id="94AjfqhA89R-d6uJUm2w-9" value="&amp;lt;ex&amp;gt;" style="text;html=1;strokeColor=none;fillColor=none;align=center;verticalAlign=middle;whiteSpace=wrap;rounded=0;fontSize=11;fontFamily=Helvetica;fontColor=default;rotation=90;" vertex="1" parent="1">
          <mxGeometry x="1090" y="226" width="60" height="30" as="geometry" />
        </mxCell>
        <mxCell id="94AjfqhA89R-d6uJUm2w-10" value="&amp;lt;ex&amp;gt;" style="text;html=1;strokeColor=none;fillColor=none;align=center;verticalAlign=middle;whiteSpace=wrap;rounded=0;fontSize=11;fontFamily=Helvetica;fontColor=default;rotation=0;" vertex="1" parent="1">
          <mxGeometry x="923" y="415" width="60" height="30" as="geometry" />
        </mxCell>
        <mxCell id="94AjfqhA89R-d6uJUm2w-11" value="&amp;lt;ex&amp;gt;" style="text;html=1;strokeColor=none;fillColor=none;align=center;verticalAlign=middle;whiteSpace=wrap;rounded=0;fontSize=11;fontFamily=Helvetica;fontColor=default;rotation=0;" vertex="1" parent="1">
          <mxGeometry x="1050" y="331" width="60" height="30" as="geometry" />
        </mxCell>
        <mxCell id="94AjfqhA89R-d6uJUm2w-12" value="&amp;lt;ex&amp;gt;" style="text;html=1;strokeColor=none;fillColor=none;align=center;verticalAlign=middle;whiteSpace=wrap;rounded=0;fontSize=11;fontFamily=Helvetica;fontColor=default;rotation=0;" vertex="1" parent="1">
          <mxGeometry x="1130" y="466" width="60" height="30" as="geometry" />
        </mxCell>
        <mxCell id="94AjfqhA89R-d6uJUm2w-13" value="&amp;lt;ex&amp;gt;" style="text;html=1;strokeColor=none;fillColor=none;align=center;verticalAlign=middle;whiteSpace=wrap;rounded=0;fontSize=11;fontFamily=Helvetica;fontColor=default;rotation=0;" vertex="1" parent="1">
          <mxGeometry x="792" y="486" width="60" height="30" as="geometry" />
        </mxCell>
        <mxCell id="94AjfqhA89R-d6uJUm2w-15" value="&amp;lt;ex&amp;gt;" style="text;html=1;strokeColor=none;fillColor=none;align=center;verticalAlign=middle;whiteSpace=wrap;rounded=0;fontSize=11;fontFamily=Helvetica;fontColor=default;rotation=0;" vertex="1" parent="1">
          <mxGeometry x="1125" y="565" width="60" height="30" as="geometry" />
        </mxCell>
        <mxCell id="94AjfqhA89R-d6uJUm2w-17" value="&amp;lt;ex&amp;gt;" style="text;html=1;strokeColor=none;fillColor=none;align=center;verticalAlign=middle;whiteSpace=wrap;rounded=0;fontSize=11;fontFamily=Helvetica;fontColor=default;rotation=0;" vertex="1" parent="1">
          <mxGeometry x="1125" y="365" width="60" height="30" as="geometry" />
        </mxCell>
        <mxCell id="94AjfqhA89R-d6uJUm2w-18" value="&amp;lt;ex&amp;gt;" style="text;html=1;strokeColor=none;fillColor=none;align=center;verticalAlign=middle;whiteSpace=wrap;rounded=0;fontSize=11;fontFamily=Helvetica;fontColor=default;rotation=90;" vertex="1" parent="1">
          <mxGeometry x="660" y="535" width="60" height="30" as="geometry" />
        </mxCell>
        <mxCell id="94AjfqhA89R-d6uJUm2w-19" value="&amp;lt;ex&amp;gt;" style="text;html=1;strokeColor=none;fillColor=none;align=center;verticalAlign=middle;whiteSpace=wrap;rounded=0;fontSize=11;fontFamily=Helvetica;fontColor=default;rotation=90;" vertex="1" parent="1">
          <mxGeometry x="852" y="460" width="60" height="30" as="geometry" />
        </mxCell>
        <mxCell id="94AjfqhA89R-d6uJUm2w-20" value="&amp;lt;ex&amp;gt;" style="text;html=1;strokeColor=none;fillColor=none;align=center;verticalAlign=middle;whiteSpace=wrap;rounded=0;fontSize=11;fontFamily=Helvetica;fontColor=default;rotation=90;" vertex="1" parent="1">
          <mxGeometry x="983" y="391" width="60" height="30" as="geometry" />
        </mxCell>
        <mxCell id="94AjfqhA89R-d6uJUm2w-22" value="&amp;lt;ex&amp;gt;" style="text;html=1;strokeColor=none;fillColor=none;align=center;verticalAlign=middle;whiteSpace=wrap;rounded=0;fontSize=11;fontFamily=Helvetica;fontColor=default;rotation=0;" vertex="1" parent="1">
          <mxGeometry x="370" y="620" width="60" height="30" as="geometry" />
        </mxCell>
        <mxCell id="94AjfqhA89R-d6uJUm2w-23" value="&amp;lt;ex&amp;gt;" style="text;html=1;strokeColor=none;fillColor=none;align=center;verticalAlign=middle;whiteSpace=wrap;rounded=0;fontSize=11;fontFamily=Helvetica;fontColor=default;rotation=0;" vertex="1" parent="1">
          <mxGeometry x="510" y="620" width="60" height="30" as="geometry" />
        </mxCell>
      </root>
    </mxGraphModel>
  </diagram>
</mxfile>
